<?xml version="1.0" standalone="no"?>
<!DOCTYPE svg PUBLIC "-//W3C//DTD SVG 20010904//EN"
 "http://www.w3.org/TR/2001/REC-SVG-20010904/DTD/svg10.dtd">
<svg version="1.0" xmlns="http://www.w3.org/2000/svg"
 width="512.000000pt" height="512.000000pt" viewBox="0 0 512.000000 512.000000"
 preserveAspectRatio="xMidYMid meet">
<metadata>
Created by potrace 1.16, written by Peter Selinger 2001-2019
</metadata>
<g transform="translate(0.000000,512.000000) scale(0.100000,-0.100000)"
fill="#99d9ea" stroke="none" >
<path fill="#3f48cc" d="M0 2560 l0 -2560 2560 0 2560 0 0 2560 0 2560 -2560 0 -2560 0 0
-2560z m4900 -15 l0 -2295 -2335 0 -2335 0 0 2295 0 2295 2335 0 2335 0 0
-2295z"/>
<path fill="#3f48cc" d="M280 2545 l0 -2245 2285 0 2285 0 0 2245 0 2245 -2285 0 -2285 0 0
-2245z m1270 195 c0 -190 -1 -187 68 -151 80 41 138 140 149 255 l6 66 60 0
60 0 -6 -59 c-9 -85 -42 -177 -86 -241 l-38 -55 78 -157 79 -158 -69 0 -69 0
-58 120 c-31 66 -62 120 -68 120 -6 0 -31 -6 -56 -14 l-45 -13 -3 -107 -3
-106 -59 0 -60 0 0 328 c0 181 3 332 7 335 3 4 30 7 60 7 l53 0 0 -170z m779
155 c44 -15 101 -51 101 -63 0 -4 -17 -25 -37 -46 -30 -32 -39 -37 -52 -27
-35 25 -98 51 -127 51 -46 0 -84 -34 -84 -76 0 -44 21 -64 120 -114 91 -46
152 -96 170 -140 17 -42 8 -134 -16 -168 -11 -15 -42 -38 -70 -52 -42 -22 -62
-25 -149 -25 -57 0 -121 6 -149 14 l-48 14 5 55 c3 30 7 56 9 58 2 2 24 -4 48
-13 25 -9 82 -18 127 -21 77 -4 83 -3 107 21 28 28 33 56 16 88 -6 10 -55 42
-110 69 -113 57 -162 102 -180 164 -24 86 17 178 95 212 41 18 173 17 224 -1z
m591 -171 c36 -15 90 -64 90 -83 0 -4 -18 -22 -40 -40 l-41 -32 -34 30 c-62
54 -153 50 -198 -11 -29 -38 -34 -123 -10 -167 34 -64 61 -76 181 -76 l107 -1
3 -51 3 -51 -57 -8 c-161 -20 -283 20 -339 110 -28 46 -30 56 -30 145 0 84 3
102 25 141 59 105 208 147 340 94z m609 -2 c36 -26 58 -68 66 -124 l7 -48 -59
0 -59 0 -10 37 c-11 44 -47 63 -91 47 -49 -16 -73 -81 -73 -196 l0 -98 60 0
60 0 0 -50 0 -50 -175 0 -175 0 0 50 0 50 55 0 55 0 0 150 0 150 -45 0 -45 0
0 50 0 50 95 0 94 0 7 -60 c4 -33 11 -60 15 -60 5 0 9 9 9 20 0 46 32 83 90
104 27 10 93 -2 119 -22z"/>
</g>
</svg>
